<mxfile host="Electron" agent="Mozilla/5.0 (Windows NT 10.0; Win64; x64) AppleWebKit/537.36 (KHTML, like Gecko) draw.io/28.2.5 Chrome/138.0.7204.251 Electron/37.6.1 Safari/537.36" version="28.2.5">
  <diagram name="Page-1" id="aYhPsoeg7a7mrgQ7ed93">
    <mxGraphModel dx="2815" dy="1290" grid="1" gridSize="10" guides="1" tooltips="1" connect="1" arrows="1" fold="1" page="1" pageScale="1" pageWidth="850" pageHeight="1100" math="0" shadow="0">
      <root>
        <mxCell id="0" />
        <mxCell id="1" parent="0" />
        <mxCell id="s_58QoWldcGnIAYzbUyg-1" value="crm_cust_info" style="swimlane;fontStyle=0;childLayout=stackLayout;horizontal=1;startSize=30;horizontalStack=0;resizeParent=1;resizeParentMax=0;resizeLast=0;collapsible=1;marginBottom=0;whiteSpace=wrap;html=1;rounded=1;fillColor=#dae8fc;strokeColor=#6c8ebf;fontSize=26;" parent="1" vertex="1">
          <mxGeometry x="-285" y="490" width="200" height="110" as="geometry" />
        </mxCell>
        <mxCell id="s_58QoWldcGnIAYzbUyg-2" value="cst_id" style="text;strokeColor=none;fillColor=none;align=left;verticalAlign=middle;spacingLeft=4;spacingRight=4;overflow=hidden;points=[[0,0.5],[1,0.5]];portConstraint=eastwest;rotatable=0;whiteSpace=wrap;html=1;fontSize=26;" parent="s_58QoWldcGnIAYzbUyg-1" vertex="1">
          <mxGeometry y="30" width="200" height="40" as="geometry" />
        </mxCell>
        <mxCell id="s_58QoWldcGnIAYzbUyg-19" value="cst_key" style="text;strokeColor=none;fillColor=none;align=left;verticalAlign=middle;spacingLeft=4;spacingRight=4;overflow=hidden;points=[[0,0.5],[1,0.5]];portConstraint=eastwest;rotatable=0;whiteSpace=wrap;html=1;fontSize=26;" parent="s_58QoWldcGnIAYzbUyg-1" vertex="1">
          <mxGeometry y="70" width="200" height="40" as="geometry" />
        </mxCell>
        <mxCell id="s_58QoWldcGnIAYzbUyg-5" value="&lt;font style=&quot;font-size: 18px;&quot;&gt;Customer information&lt;/font&gt;" style="text;html=1;align=center;verticalAlign=middle;whiteSpace=wrap;rounded=0;" parent="1" vertex="1">
          <mxGeometry x="-275" y="470" width="190" height="20" as="geometry" />
        </mxCell>
        <mxCell id="s_58QoWldcGnIAYzbUyg-6" value="crm_prd_info" style="swimlane;fontStyle=0;childLayout=stackLayout;horizontal=1;startSize=30;horizontalStack=0;resizeParent=1;resizeParentMax=0;resizeLast=0;collapsible=1;marginBottom=0;whiteSpace=wrap;html=1;rounded=1;fillColor=#dae8fc;strokeColor=#6c8ebf;fontSize=26;" parent="1" vertex="1">
          <mxGeometry x="-290" y="270" width="200" height="70" as="geometry" />
        </mxCell>
        <mxCell id="s_58QoWldcGnIAYzbUyg-7" value="prd_key" style="text;strokeColor=none;fillColor=none;align=left;verticalAlign=middle;spacingLeft=4;spacingRight=4;overflow=hidden;points=[[0,0.5],[1,0.5]];portConstraint=eastwest;rotatable=0;whiteSpace=wrap;html=1;fontSize=26;" parent="s_58QoWldcGnIAYzbUyg-6" vertex="1">
          <mxGeometry y="30" width="200" height="40" as="geometry" />
        </mxCell>
        <mxCell id="s_58QoWldcGnIAYzbUyg-8" value="&lt;font style=&quot;font-size: 18px;&quot;&gt;Current &amp;amp; History Product Information&lt;/font&gt;" style="text;html=1;align=center;verticalAlign=middle;whiteSpace=wrap;rounded=0;" parent="1" vertex="1">
          <mxGeometry x="-330" y="240" width="330" height="30" as="geometry" />
        </mxCell>
        <mxCell id="s_58QoWldcGnIAYzbUyg-9" value="crm_sales_details" style="swimlane;fontStyle=0;childLayout=stackLayout;horizontal=1;startSize=30;horizontalStack=0;resizeParent=1;resizeParentMax=0;resizeLast=0;collapsible=1;marginBottom=0;whiteSpace=wrap;html=1;rounded=1;fillColor=#dae8fc;strokeColor=#6c8ebf;fontSize=26;" parent="1" vertex="1">
          <mxGeometry x="-720" y="370" width="230" height="110" as="geometry" />
        </mxCell>
        <mxCell id="s_58QoWldcGnIAYzbUyg-10" value="prd_key" style="text;strokeColor=none;fillColor=none;align=left;verticalAlign=middle;spacingLeft=4;spacingRight=4;overflow=hidden;points=[[0,0.5],[1,0.5]];portConstraint=eastwest;rotatable=0;whiteSpace=wrap;html=1;fontSize=26;" parent="s_58QoWldcGnIAYzbUyg-9" vertex="1">
          <mxGeometry y="30" width="230" height="40" as="geometry" />
        </mxCell>
        <mxCell id="s_58QoWldcGnIAYzbUyg-12" value="cst_id" style="text;strokeColor=none;fillColor=none;align=left;verticalAlign=middle;spacingLeft=4;spacingRight=4;overflow=hidden;points=[[0,0.5],[1,0.5]];portConstraint=eastwest;rotatable=0;whiteSpace=wrap;html=1;fontSize=26;" parent="s_58QoWldcGnIAYzbUyg-9" vertex="1">
          <mxGeometry y="70" width="230" height="40" as="geometry" />
        </mxCell>
        <mxCell id="s_58QoWldcGnIAYzbUyg-11" value="&lt;font style=&quot;font-size: 18px;&quot;&gt;Tranactional Records about Sales &amp;amp; Orders&amp;nbsp;&lt;/font&gt;" style="text;html=1;align=center;verticalAlign=middle;whiteSpace=wrap;rounded=0;" parent="1" vertex="1">
          <mxGeometry x="-760" y="320" width="330" height="50" as="geometry" />
        </mxCell>
        <mxCell id="s_58QoWldcGnIAYzbUyg-13" style="edgeStyle=orthogonalEdgeStyle;rounded=0;orthogonalLoop=1;jettySize=auto;html=1;entryX=0;entryY=0.5;entryDx=0;entryDy=0;" parent="1" source="s_58QoWldcGnIAYzbUyg-12" target="s_58QoWldcGnIAYzbUyg-2" edge="1">
          <mxGeometry relative="1" as="geometry" />
        </mxCell>
        <mxCell id="s_58QoWldcGnIAYzbUyg-14" style="edgeStyle=orthogonalEdgeStyle;rounded=0;orthogonalLoop=1;jettySize=auto;html=1;" parent="1" source="s_58QoWldcGnIAYzbUyg-10" target="s_58QoWldcGnIAYzbUyg-7" edge="1">
          <mxGeometry relative="1" as="geometry" />
        </mxCell>
        <mxCell id="s_58QoWldcGnIAYzbUyg-16" value="erp_cust_az12" style="swimlane;fontStyle=0;childLayout=stackLayout;horizontal=1;startSize=30;horizontalStack=0;resizeParent=1;resizeParentMax=0;resizeLast=0;collapsible=1;marginBottom=0;whiteSpace=wrap;html=1;rounded=1;fillColor=#fff2cc;strokeColor=#d6b656;fontSize=26;" parent="1" vertex="1">
          <mxGeometry x="250" y="530" width="200" height="70" as="geometry" />
        </mxCell>
        <mxCell id="s_58QoWldcGnIAYzbUyg-30" style="edgeStyle=orthogonalEdgeStyle;rounded=0;orthogonalLoop=1;jettySize=auto;html=1;" parent="s_58QoWldcGnIAYzbUyg-16" source="s_58QoWldcGnIAYzbUyg-17" edge="1">
          <mxGeometry relative="1" as="geometry">
            <mxPoint x="-330" y="50" as="targetPoint" />
          </mxGeometry>
        </mxCell>
        <mxCell id="s_58QoWldcGnIAYzbUyg-17" value="cid" style="text;strokeColor=none;fillColor=none;align=left;verticalAlign=middle;spacingLeft=4;spacingRight=4;overflow=hidden;points=[[0,0.5],[1,0.5]];portConstraint=eastwest;rotatable=0;whiteSpace=wrap;html=1;fontSize=26;" parent="s_58QoWldcGnIAYzbUyg-16" vertex="1">
          <mxGeometry y="30" width="200" height="40" as="geometry" />
        </mxCell>
        <mxCell id="s_58QoWldcGnIAYzbUyg-18" value="&lt;font style=&quot;font-size: 18px;&quot;&gt;Customer Information (Birth Date)&lt;/font&gt;" style="text;html=1;align=center;verticalAlign=middle;whiteSpace=wrap;rounded=0;" parent="1" vertex="1">
          <mxGeometry x="210" y="500" width="330" height="30" as="geometry" />
        </mxCell>
        <mxCell id="s_58QoWldcGnIAYzbUyg-22" value="erp_loc_a101" style="swimlane;fontStyle=0;childLayout=stackLayout;horizontal=1;startSize=30;horizontalStack=0;resizeParent=1;resizeParentMax=0;resizeLast=0;collapsible=1;marginBottom=0;whiteSpace=wrap;html=1;rounded=1;fillColor=#fff2cc;strokeColor=#d6b656;fontSize=26;" parent="1" vertex="1">
          <mxGeometry x="250" y="790" width="200" height="70" as="geometry" />
        </mxCell>
        <mxCell id="s_58QoWldcGnIAYzbUyg-23" value="cid" style="text;strokeColor=none;fillColor=none;align=left;verticalAlign=middle;spacingLeft=4;spacingRight=4;overflow=hidden;points=[[0,0.5],[1,0.5]];portConstraint=eastwest;rotatable=0;whiteSpace=wrap;html=1;fontSize=26;" parent="s_58QoWldcGnIAYzbUyg-22" vertex="1">
          <mxGeometry y="30" width="200" height="40" as="geometry" />
        </mxCell>
        <mxCell id="s_58QoWldcGnIAYzbUyg-24" value="&lt;font style=&quot;font-size: 18px;&quot;&gt;Location of Customers (Country)&lt;/font&gt;" style="text;html=1;align=center;verticalAlign=middle;whiteSpace=wrap;rounded=0;" parent="1" vertex="1">
          <mxGeometry x="210" y="760" width="330" height="30" as="geometry" />
        </mxCell>
        <mxCell id="s_58QoWldcGnIAYzbUyg-26" value="erp_px_cat_g1v2" style="swimlane;fontStyle=0;childLayout=stackLayout;horizontal=1;startSize=30;horizontalStack=0;resizeParent=1;resizeParentMax=0;resizeLast=0;collapsible=1;marginBottom=0;whiteSpace=wrap;html=1;rounded=1;fillColor=#fff2cc;strokeColor=#d6b656;fontSize=26;" parent="1" vertex="1">
          <mxGeometry x="240" y="270" width="250" height="70" as="geometry" />
        </mxCell>
        <mxCell id="s_58QoWldcGnIAYzbUyg-27" value="id" style="text;strokeColor=none;fillColor=none;align=left;verticalAlign=middle;spacingLeft=4;spacingRight=4;overflow=hidden;points=[[0,0.5],[1,0.5]];portConstraint=eastwest;rotatable=0;whiteSpace=wrap;html=1;fontSize=26;" parent="s_58QoWldcGnIAYzbUyg-26" vertex="1">
          <mxGeometry y="30" width="250" height="40" as="geometry" />
        </mxCell>
        <mxCell id="s_58QoWldcGnIAYzbUyg-28" value="&lt;font style=&quot;font-size: 18px;&quot;&gt;Customer Information (Birth Date)&lt;/font&gt;" style="text;html=1;align=center;verticalAlign=middle;whiteSpace=wrap;rounded=0;" parent="1" vertex="1">
          <mxGeometry x="200" y="240" width="330" height="30" as="geometry" />
        </mxCell>
        <mxCell id="s_58QoWldcGnIAYzbUyg-29" style="edgeStyle=orthogonalEdgeStyle;rounded=0;orthogonalLoop=1;jettySize=auto;html=1;entryX=1;entryY=0.5;entryDx=0;entryDy=0;" parent="1" source="s_58QoWldcGnIAYzbUyg-23" target="s_58QoWldcGnIAYzbUyg-19" edge="1">
          <mxGeometry relative="1" as="geometry" />
        </mxCell>
        <mxCell id="s_58QoWldcGnIAYzbUyg-32" style="edgeStyle=orthogonalEdgeStyle;rounded=0;orthogonalLoop=1;jettySize=auto;html=1;" parent="1" source="s_58QoWldcGnIAYzbUyg-27" target="s_58QoWldcGnIAYzbUyg-7" edge="1">
          <mxGeometry relative="1" as="geometry" />
        </mxCell>
        <mxCell id="s_58QoWldcGnIAYzbUyg-33" value="" style="rounded=0;whiteSpace=wrap;html=1;fillColor=none;dashed=1;" parent="1" vertex="1">
          <mxGeometry x="-760" y="150" width="800" height="780" as="geometry" />
        </mxCell>
        <mxCell id="s_58QoWldcGnIAYzbUyg-34" value="&lt;font style=&quot;font-size: 30px;&quot;&gt;&lt;b style=&quot;&quot;&gt;CRM&lt;/b&gt;&lt;/font&gt;" style="rounded=1;whiteSpace=wrap;html=1;fillColor=#dae8fc;strokeColor=#6c8ebf;" parent="1" vertex="1">
          <mxGeometry x="-510" y="120" width="280" height="60" as="geometry" />
        </mxCell>
        <mxCell id="s_58QoWldcGnIAYzbUyg-35" value="" style="rounded=0;whiteSpace=wrap;html=1;fillColor=none;dashed=1;" parent="1" vertex="1">
          <mxGeometry x="165" y="160" width="415" height="770" as="geometry" />
        </mxCell>
        <mxCell id="s_58QoWldcGnIAYzbUyg-36" value="&lt;font style=&quot;font-size: 30px;&quot;&gt;ERP&lt;/font&gt;" style="rounded=1;whiteSpace=wrap;html=1;fillColor=#fff2cc;strokeColor=#d6b656;" parent="1" vertex="1">
          <mxGeometry x="305" y="130" width="120" height="60" as="geometry" />
        </mxCell>
        <mxCell id="CegSr1WJxD7xzzhYEx40-2" value="&lt;font style=&quot;font-size: 25px;&quot;&gt;Product&lt;/font&gt;" style="text;html=1;strokeColor=#b85450;fillColor=#f8cecc;align=center;verticalAlign=middle;whiteSpace=wrap;overflow=hidden;fontSize=20;fontStyle=1" vertex="1" parent="1">
          <mxGeometry x="-287.5" y="340" width="195" height="40" as="geometry" />
        </mxCell>
        <mxCell id="CegSr1WJxD7xzzhYEx40-3" value="&lt;font style=&quot;font-size: 25px;&quot;&gt;Product&lt;/font&gt;" style="text;html=1;strokeColor=#b85450;fillColor=#f8cecc;align=center;verticalAlign=middle;whiteSpace=wrap;overflow=hidden;fontSize=20;fontStyle=1" vertex="1" parent="1">
          <mxGeometry x="240" y="340" width="250" height="40" as="geometry" />
        </mxCell>
        <mxCell id="CegSr1WJxD7xzzhYEx40-4" value="&lt;font style=&quot;font-size: 25px;&quot;&gt;Customer&lt;/font&gt;" style="text;html=1;strokeColor=#82b366;fillColor=#d5e8d4;align=center;verticalAlign=middle;whiteSpace=wrap;overflow=hidden;fontSize=20;fontStyle=1" vertex="1" parent="1">
          <mxGeometry x="-280" y="600" width="200" height="40" as="geometry" />
        </mxCell>
        <mxCell id="CegSr1WJxD7xzzhYEx40-5" value="&lt;font style=&quot;font-size: 25px;&quot;&gt;Customer&lt;/font&gt;" style="text;html=1;strokeColor=#82b366;fillColor=#d5e8d4;align=center;verticalAlign=middle;whiteSpace=wrap;overflow=hidden;fontSize=20;fontStyle=1" vertex="1" parent="1">
          <mxGeometry x="250" y="600" width="200" height="40" as="geometry" />
        </mxCell>
        <mxCell id="CegSr1WJxD7xzzhYEx40-6" value="&lt;font style=&quot;font-size: 25px;&quot;&gt;Customer&lt;/font&gt;" style="text;html=1;strokeColor=#82b366;fillColor=#d5e8d4;align=center;verticalAlign=middle;whiteSpace=wrap;overflow=hidden;fontSize=20;fontStyle=1" vertex="1" parent="1">
          <mxGeometry x="250" y="860" width="200" height="40" as="geometry" />
        </mxCell>
        <mxCell id="CegSr1WJxD7xzzhYEx40-7" value="&lt;font style=&quot;font-size: 25px;&quot;&gt;Sales&lt;/font&gt;" style="text;html=1;strokeColor=#9673a6;fillColor=#e1d5e7;align=center;verticalAlign=middle;whiteSpace=wrap;overflow=hidden;fontSize=20;fontStyle=1" vertex="1" parent="1">
          <mxGeometry x="-720" y="480" width="230" height="40" as="geometry" />
        </mxCell>
      </root>
    </mxGraphModel>
  </diagram>
</mxfile>
